<?xml version="1.0" encoding="UTF-8" standalone="no"?>
<svg
   xmlns:dc="http://purl.org/dc/elements/1.1/"
   xmlns:cc="http://creativecommons.org/ns#"
   xmlns:rdf="http://www.w3.org/1999/02/22-rdf-syntax-ns#"
   xmlns:svg="http://www.w3.org/2000/svg"
   xmlns="http://www.w3.org/2000/svg"
   xmlns:sodipodi="http://sodipodi.sourceforge.net/DTD/sodipodi-0.dtd"
   xmlns:inkscape="http://www.inkscape.org/namespaces/inkscape"
   fill="#000000"
   height="24"
   viewBox="0 0 24 24"
   width="24"
   id="svg2"
   version="1.1"
   inkscape:version="0.91 r13725"
   sodipodi:docname="deleteAll.svg">
  <metadata
     id="metadata14">
    <rdf:RDF>
      <cc:Work
         rdf:about="">
        <dc:format>image/svg+xml</dc:format>
        <dc:type
           rdf:resource="http://purl.org/dc/dcmitype/StillImage" />
      </cc:Work>
    </rdf:RDF>
  </metadata>
  <defs
     id="defs12" />
  <sodipodi:namedview
     pagecolor="#ffffff"
     bordercolor="#666666"
     borderopacity="1"
     objecttolerance="10"
     gridtolerance="10"
     guidetolerance="10"
     inkscape:pageopacity="0"
     inkscape:pageshadow="2"
     inkscape:window-width="1600"
     inkscape:window-height="835"
     id="namedview10"
     showgrid="false"
     inkscape:zoom="9.8333333"
     inkscape:cx="-2.440678"
     inkscape:cy="12"
     inkscape:window-x="0"
     inkscape:window-y="0"
     inkscape:window-maximized="1"
     inkscape:current-layer="svg2" />
  <path
     d="M0 0h24v24H0V0z"
     fill="none"
     id="path4" />
  <path
     d="M6 19c0 1.1.9 2 2 2h8c1.1 0 2-.9 2-2V7H6v12zm2.46-7.12l1.41-1.41L12 12.59l2.12-2.12 1.41 1.41L13.41 14l2.12 2.12-1.41 1.41L12 15.41l-2.12 2.12-1.41-1.41L10.59 14l-2.13-2.12zM15.5 4l-1-1h-5l-1 1H5v2h14V4z"
     id="path6" />
  <path
     d="M0 0h24v24H0z"
     fill="none"
     id="path8" />
  <path
     style="fill:#ffffff"
     d="M 7.1597,20.732726 C 6.6794583,20.495012 6.3143055,20.067992 6.1360783,19.535673 6.0546955,19.292602 6.020339,17.38324 6.020339,13.103469 l 0,-6.0865198 5.949153,0 5.949152,0 0,6.1967698 c 0,4.115394 -0.03619,6.292926 -0.10775,6.48305 -0.160943,0.427612 -0.802868,1.038072 -1.210727,1.151379 -0.209206,0.05812 -2.166297,0.100074 -4.681523,0.100357 -4.2035533,5.08e-4 -4.3340109,-0.0054 -4.758944,-0.215779 z m 3.81653,-4.180062 1.044109,-1.040555 1.043679,1.040126 1.043678,1.040127 0.735554,-0.735553 0.735553,-0.735553 -1.040127,-1.043679 -1.040127,-1.043679 1.063707,-1.067339 1.063706,-1.067338 -0.706864,-0.712323 c -0.388775,-0.391777 -0.754712,-0.712322 -0.813194,-0.712322 -0.05848,0 -0.562279,0.457666 -1.119549,1.017035 l -1.013219,1.017035 -1.044666,-1.041111 -1.0446661,-1.041111 -0.7354696,0.73547 -0.7354695,0.735469 1.0411111,1.044666 1.0411111,1.044667 -1.0170351,1.013218 c -0.5593692,0.557271 -1.017035,1.058692 -1.017035,1.11427 0,0.101381 1.321981,1.479036 1.4192651,1.479036 0.028511,0 0.521688,-0.46825 1.095948,-1.040556 z"
     id="path3342"
     inkscape:connector-curvature="0" />
  <path
     style="fill:#000000"
     d="m 5.0033898,5.0338983 0,-0.9661017 1.7580602,0 1.7580602,0 0.5008288,-0.5084746 0.5008287,-0.5084745 2.4991713,0 2.499171,0 0.500829,0.5084745 0.500829,0.5084746 1.707213,0 1.707212,0 0,0.9661017 0,0.9661017 -6.966101,0 -6.9661022,0 0,-0.9661017 z"
     id="path3344"
     inkscape:connector-curvature="0" />
  <path
     style="fill:#ffffff"
     d="m 9.1976472,16.755613 -0.6342171,-0.634217 1.0401967,-1.043749 1.0401972,-1.043749 -1.0646,-1.068235 -1.0645995,-1.068235 0.6846222,-0.684622 0.6846221,-0.684622 1.0682352,1.064599 1.068235,1.0646 1.044714,-1.041158 1.044713,-1.041159 0.656298,0.662184 0.656297,0.662183 -1.040034,1.043586 -1.040035,1.043585 1.067379,1.063747 1.067379,1.063746 -0.632927,0.638603 c -0.34811,0.351231 -0.666118,0.626831 -0.706685,0.612443 -0.04057,-0.01439 -0.536656,-0.479834 -1.10242,-1.034324 l -1.028662,-1.008164 -1.037118,1.033588 c -0.570415,0.568473 -1.0596751,1.033588 -1.0872456,1.033588 -0.02757,0 -0.3355257,-0.285398 -0.6843452,-0.634218 z"
     id="path3346"
     inkscape:connector-curvature="0" />
  <path
     style="fill:#000000"
     d="m 5.0033898,5.0338983 0,-0.9661017 1.7580602,0 1.7580602,0 0.5008288,-0.5084746 0.5008287,-0.5084745 2.4991713,0 2.499171,0 0.500829,0.5084745 0.500829,0.5084746 1.707213,0 1.707212,0 0,0.9661017 0,0.9661017 -6.966101,0 -6.9661022,0 0,-0.9661017 z"
     id="path3348"
     inkscape:connector-curvature="0" />
  <path
     style="fill:#ffffff"
     d="m 9.1976472,16.755613 -0.6342171,-0.634217 1.0401967,-1.043749 1.0401972,-1.043749 -1.0646,-1.068235 -1.0645995,-1.068235 0.6846222,-0.684622 0.6846221,-0.684622 1.0682352,1.064599 1.068235,1.0646 1.067109,-1.063477 1.067108,-1.063477 0.610858,0.604483 c 0.335971,0.332466 0.610857,0.652538 0.610857,0.71127 0,0.05873 -0.457683,0.562752 -1.017073,1.120043 l -1.017073,1.013256 1.068561,1.071885 1.068561,1.071884 -0.657203,0.651362 -0.657204,0.651361 -1.106048,-1.02853 -1.106048,-1.028531 -1.006667,1.010459 c -0.553667,0.555753 -1.0308654,1.01046 -1.0604402,1.01046 -0.029575,0 -0.3391701,-0.285398 -0.6879896,-0.634218 z"
     id="path3350"
     inkscape:connector-curvature="0" />
  <path
     style="fill:#000000"
     d="m 5.0033898,5.0338983 0,-0.9661017 1.7580602,0 1.7580602,0 0.5008288,-0.5084746 0.5008287,-0.5084745 2.4991713,0 2.499171,0 0.500829,0.5084745 0.500829,0.5084746 1.707213,0 1.707212,0 0,0.9661017 0,0.9661017 -6.966101,0 -6.9661022,0 0,-0.9661017 z"
     id="path3352"
     inkscape:connector-curvature="0" />
  <path
     style="fill:#000000"
     d="m 9.1976472,16.755613 -0.6342171,-0.634217 1.0401967,-1.043749 1.0401972,-1.043749 -1.0646,-1.068235 -1.0645995,-1.068235 0.6846222,-0.684622 0.6846221,-0.684622 1.0682352,1.064599 1.068235,1.0646 1.067109,-1.063477 1.067108,-1.063477 0.610858,0.604483 c 0.335971,0.332466 0.610857,0.652538 0.610857,0.71127 0,0.05873 -0.457683,0.562752 -1.017073,1.120043 l -1.017073,1.013256 1.068561,1.071885 1.068561,1.071884 -0.658111,0.652261 -0.658111,0.652261 -0.23236,-0.192728 c -0.127798,-0.106 -0.622225,-0.572141 -1.098726,-1.035868 l -0.866367,-0.84314 -1.013081,1.016897 c -0.557195,0.559294 -1.0372794,1.016898 -1.0668542,1.016898 -0.029575,0 -0.3391701,-0.285398 -0.6879896,-0.634218 z"
     id="path3354"
     inkscape:connector-curvature="0" />
  <path
     style="fill:#ffffff"
     d="m 5.0237288,5.0338983 0,-0.9661017 1.7580602,0 1.7580602,0 0.5008288,-0.5084746 0.5008287,-0.5084745 2.4991713,0 2.499171,0 0.500829,0.5084745 0.500829,0.5084746 1.707213,0 1.707212,0 0,0.9661017 0,0.9661017 -6.966101,0 -6.9661022,0 0,-0.9661017 z"
     id="path4156"
     inkscape:connector-curvature="0" />
</svg>
