<?xml version="1.0" encoding="UTF-8" standalone="no"?>
<svg
   xmlns:dc="http://purl.org/dc/elements/1.1/"
   xmlns:cc="http://creativecommons.org/ns#"
   xmlns:rdf="http://www.w3.org/1999/02/22-rdf-syntax-ns#"
   xmlns:svg="http://www.w3.org/2000/svg"
   xmlns="http://www.w3.org/2000/svg"
   xmlns:sodipodi="http://sodipodi.sourceforge.net/DTD/sodipodi-0.dtd"
   xmlns:inkscape="http://www.inkscape.org/namespaces/inkscape"
   fill="#000000"
   height="24"
   viewBox="0 0 24 24"
   width="24"
   id="svg2"
   version="1.1"
   inkscape:version="0.91 r13725"
   sodipodi:docname="menu.svg">
  <metadata
     id="metadata12">
    <rdf:RDF>
      <cc:Work
         rdf:about="">
        <dc:format>image/svg+xml</dc:format>
        <dc:type
           rdf:resource="http://purl.org/dc/dcmitype/StillImage" />
      </cc:Work>
    </rdf:RDF>
  </metadata>
  <defs
     id="defs10" />
  <sodipodi:namedview
     pagecolor="#ffffff"
     bordercolor="#666666"
     borderopacity="1"
     objecttolerance="10"
     gridtolerance="10"
     guidetolerance="10"
     inkscape:pageopacity="0"
     inkscape:pageshadow="2"
     inkscape:window-width="1600"
     inkscape:window-height="835"
     id="namedview8"
     showgrid="false"
     inkscape:zoom="9.8333333"
     inkscape:cx="12"
     inkscape:cy="12"
     inkscape:window-x="0"
     inkscape:window-y="0"
     inkscape:window-maximized="1"
     inkscape:current-layer="svg2" />
  <path
     d="M0 0h24v24H0z"
     fill="none"
     id="path4" />
  <path
     d="M3 18h18v-2H3v2zm0-5h18v-2H3v2zm0-7v2h18V6H3z"
     id="path6" />
  <path
     style="fill:#ffffff"
     d="m 3.0915254,17.033898 0,-0.966101 8.9491526,0 8.949153,0 0,0.966101 0,0.966102 -8.949153,0 -8.9491526,0 0,-0.966102 z"
     id="path4140"
     inkscape:connector-curvature="0" />
  <path
     style="fill:#ffffff"
     d="m 3.0915254,12 0,-0.915254 8.9491526,0 8.949153,0 0,0.915254 0,0.915254 -8.949153,0 -8.9491526,0 0,-0.915254 z"
     id="path4142"
     inkscape:connector-curvature="0" />
  <path
     style="fill:#ffffff"
     d="m 3.0915254,6.9661017 0,-0.9661017 8.9491526,0 8.949153,0 0,0.9661017 0,0.9661017 -8.949153,0 -8.9491526,0 0,-0.9661017 z"
     id="path4144"
     inkscape:connector-curvature="0" />
</svg>
